<svg xmlns="http://www.w3.org/2000/svg" xmlns:xlink="http://www.w3.org/1999/xlink" width="500" zoomAndPan="magnify" viewBox="0 0 375 374.999991" height="500" preserveAspectRatio="xMidYMid meet" version="1.0"><defs><g/><clipPath id="7b4534bd38"><path d="M 152.847656 127.898438 L 221.847656 127.898438 L 221.847656 192 L 152.847656 192 Z M 152.847656 127.898438 " clip-rule="nonzero"/></clipPath><clipPath id="a95b1ad82c"><path d="M 155 173 L 175 173 L 175 196.898438 L 155 196.898438 Z M 155 173 " clip-rule="nonzero"/></clipPath><clipPath id="0fb0d79e3c"><path d="M 200 173 L 220 173 L 220 196.898438 L 200 196.898438 Z M 200 173 " clip-rule="nonzero"/></clipPath><clipPath id="037d373d4b"><path d="M 174.722656 184 L 176 184 L 176 188 L 174.722656 188 Z M 174.722656 184 " clip-rule="nonzero"/></clipPath><clipPath id="169030fda7"><path d="M 184 173.898438 L 186 173.898438 L 186 197.148438 L 184 197.148438 Z M 184 173.898438 " clip-rule="nonzero"/></clipPath><clipPath id="80f9e2d8ac"><path d="M 199 184 L 200.222656 184 L 200.222656 188 L 199 188 Z M 199 184 " clip-rule="nonzero"/></clipPath><clipPath id="5ece2cc767"><path d="M 207.882812 175.570312 L 216.882812 175.570312 L 216.882812 194.320312 L 207.882812 194.320312 Z M 207.882812 175.570312 " clip-rule="nonzero"/></clipPath><clipPath id="1e6b690ecf"><path d="M 220.933594 178.515625 L 226.933594 178.515625 L 226.933594 191.265625 L 220.933594 191.265625 Z M 220.933594 178.515625 " clip-rule="nonzero"/></clipPath><clipPath id="0730c16cbe"><path d="M 148.0625 178.515625 L 153.78125 178.515625 L 153.78125 191.265625 L 148.0625 191.265625 Z M 148.0625 178.515625 " clip-rule="nonzero"/></clipPath><clipPath id="d455644292"><path d="M 158.234375 175.640625 L 166.894531 175.640625 L 166.894531 194.320312 L 158.234375 194.320312 Z M 158.234375 175.640625 " clip-rule="nonzero"/></clipPath></defs><g clip-path="url(#7b4534bd38)"><path fill="#ffffff" d="M 187.476562 127.898438 C 168.378906 127.898438 152.847656 143.433594 152.847656 162.527344 L 152.847656 190.796875 C 152.847656 191.1875 153.164062 191.503906 153.550781 191.503906 C 153.941406 191.503906 154.257812 191.1875 154.257812 190.796875 L 154.257812 162.527344 C 154.257812 144.210938 169.160156 129.3125 187.476562 129.3125 C 205.789062 129.3125 220.691406 144.210938 220.691406 162.527344 L 220.691406 190.796875 C 220.691406 191.1875 221.007812 191.503906 221.398438 191.503906 C 221.785156 191.503906 222.105469 191.1875 222.105469 190.796875 L 222.105469 162.527344 C 222.105469 143.433594 206.570312 127.898438 187.476562 127.898438 Z M 187.476562 127.898438 " fill-opacity="1" fill-rule="nonzero"/></g><g clip-path="url(#a95b1ad82c)"><path fill="#ffffff" d="M 173.339844 173.128906 L 167.6875 173.128906 C 161.0625 173.128906 155.671875 178.519531 155.671875 185.144531 C 155.671875 191.765625 161.0625 197.15625 167.6875 197.15625 L 173.339844 197.15625 C 173.730469 197.15625 174.046875 196.839844 174.046875 196.449219 L 174.046875 173.835938 C 174.046875 173.445312 173.730469 173.128906 173.339844 173.128906 Z M 172.632812 195.742188 L 167.6875 195.742188 C 161.839844 195.742188 157.085938 190.988281 157.085938 185.144531 C 157.085938 179.296875 161.839844 174.542969 167.6875 174.542969 L 172.632812 174.542969 Z M 172.632812 195.742188 " fill-opacity="1" fill-rule="nonzero"/></g><g clip-path="url(#0fb0d79e3c)"><path fill="#ffffff" d="M 207.261719 173.128906 L 201.609375 173.128906 C 201.21875 173.128906 200.902344 173.445312 200.902344 173.835938 L 200.902344 196.449219 C 200.902344 196.839844 201.21875 197.15625 201.609375 197.15625 L 207.261719 197.15625 C 213.886719 197.15625 219.277344 191.765625 219.277344 185.144531 C 219.277344 178.519531 213.886719 173.128906 207.261719 173.128906 Z M 207.261719 195.742188 L 202.316406 195.742188 L 202.316406 174.542969 L 207.261719 174.542969 C 213.109375 174.542969 217.863281 179.296875 217.863281 185.144531 C 217.863281 190.988281 213.109375 195.742188 207.261719 195.742188 Z M 207.261719 195.742188 " fill-opacity="1" fill-rule="nonzero"/></g><g clip-path="url(#037d373d4b)"><path fill="#ffffff" d="M 175.234375 184.097656 C 174.953125 184.097656 174.722656 184.328125 174.722656 184.609375 L 174.722656 186.648438 C 174.722656 186.929688 174.953125 187.160156 175.234375 187.160156 C 175.515625 187.160156 175.742188 186.929688 175.742188 186.648438 L 175.742188 184.609375 C 175.742188 184.328125 175.515625 184.097656 175.234375 184.097656 Z M 175.234375 184.097656 " fill-opacity="1" fill-rule="nonzero"/></g><path fill="#ffffff" d="M 177.273438 182.058594 C 176.992188 182.058594 176.765625 182.289062 176.765625 182.570312 L 176.765625 188.6875 C 176.765625 188.972656 176.992188 189.199219 177.273438 189.199219 C 177.554688 189.199219 177.785156 188.972656 177.785156 188.6875 L 177.785156 182.570312 C 177.785156 182.289062 177.554688 182.058594 177.273438 182.058594 Z M 177.273438 182.058594 " fill-opacity="1" fill-rule="nonzero"/><path fill="#ffffff" d="M 179.3125 183.078125 C 179.03125 183.078125 178.804688 183.308594 178.804688 183.589844 L 178.804688 187.667969 C 178.804688 187.949219 179.03125 188.179688 179.3125 188.179688 C 179.59375 188.179688 179.824219 187.949219 179.824219 187.667969 L 179.824219 183.589844 C 179.824219 183.308594 179.59375 183.078125 179.3125 183.078125 Z M 179.3125 183.078125 " fill-opacity="1" fill-rule="nonzero"/><path fill="#ffffff" d="M 181.355469 179 C 181.074219 179 180.84375 179.226562 180.84375 179.507812 L 180.84375 191.75 C 180.84375 192.03125 181.074219 192.257812 181.355469 192.257812 C 181.636719 192.257812 181.863281 192.03125 181.863281 191.75 L 181.863281 179.507812 C 181.863281 179.226562 181.636719 179 181.355469 179 Z M 181.355469 179 " fill-opacity="1" fill-rule="nonzero"/><path fill="#ffffff" d="M 183.394531 183.078125 C 183.113281 183.078125 182.882812 183.308594 182.882812 183.589844 L 182.882812 187.667969 C 182.882812 187.949219 183.113281 188.179688 183.394531 188.179688 C 183.675781 188.179688 183.902344 187.949219 183.902344 187.667969 L 183.902344 183.589844 C 183.902344 183.308594 183.675781 183.078125 183.394531 183.078125 Z M 183.394531 183.078125 " fill-opacity="1" fill-rule="nonzero"/><g clip-path="url(#169030fda7)"><path fill="#ffffff" d="M 185.433594 173.898438 C 185.152344 173.898438 184.925781 174.128906 184.925781 174.410156 L 184.925781 196.847656 C 184.925781 197.132812 185.152344 197.359375 185.433594 197.359375 C 185.714844 197.359375 185.945312 197.132812 185.945312 196.847656 L 185.945312 174.410156 C 185.945312 174.128906 185.714844 173.898438 185.433594 173.898438 Z M 185.433594 173.898438 " fill-opacity="1" fill-rule="nonzero"/></g><path fill="#ffffff" d="M 187.472656 177.980469 C 187.191406 177.980469 186.964844 178.207031 186.964844 178.488281 L 186.964844 192.769531 C 186.964844 193.050781 187.191406 193.277344 187.472656 193.277344 C 187.753906 193.277344 187.984375 193.050781 187.984375 192.769531 L 187.984375 178.488281 C 187.984375 178.207031 187.753906 177.980469 187.472656 177.980469 Z M 187.472656 177.980469 " fill-opacity="1" fill-rule="nonzero"/><path fill="#ffffff" d="M 189.515625 180.019531 C 189.230469 180.019531 189.003906 180.246094 189.003906 180.527344 L 189.003906 190.730469 C 189.003906 191.011719 189.230469 191.238281 189.515625 191.238281 C 189.796875 191.238281 190.023438 191.011719 190.023438 190.730469 L 190.023438 180.527344 C 190.023438 180.246094 189.796875 180.019531 189.515625 180.019531 Z M 189.515625 180.019531 " fill-opacity="1" fill-rule="nonzero"/><path fill="#ffffff" d="M 191.554688 183.078125 C 191.273438 183.078125 191.042969 183.308594 191.042969 183.589844 L 191.042969 187.667969 C 191.042969 187.949219 191.273438 188.179688 191.554688 188.179688 C 191.835938 188.179688 192.0625 187.949219 192.0625 187.667969 L 192.0625 183.589844 C 192.0625 183.308594 191.835938 183.078125 191.554688 183.078125 Z M 191.554688 183.078125 " fill-opacity="1" fill-rule="nonzero"/><path fill="#ffffff" d="M 193.59375 184.097656 C 193.3125 184.097656 193.085938 184.328125 193.085938 184.609375 L 193.085938 186.648438 C 193.085938 186.929688 193.3125 187.160156 193.59375 187.160156 C 193.875 187.160156 194.105469 186.929688 194.105469 186.648438 L 194.105469 184.609375 C 194.105469 184.328125 193.875 184.097656 193.59375 184.097656 Z M 193.59375 184.097656 " fill-opacity="1" fill-rule="nonzero"/><path fill="#ffffff" d="M 195.632812 180.019531 C 195.351562 180.019531 195.125 180.246094 195.125 180.527344 L 195.125 189.707031 C 195.125 189.992188 195.351562 190.21875 195.632812 190.21875 C 195.917969 190.21875 196.144531 189.992188 196.144531 189.707031 L 196.144531 180.527344 C 196.144531 180.246094 195.917969 180.019531 195.632812 180.019531 Z M 195.632812 180.019531 " fill-opacity="1" fill-rule="nonzero"/><path fill="#ffffff" d="M 197.675781 183.078125 C 197.390625 183.078125 197.164062 183.308594 197.164062 183.589844 L 197.164062 187.667969 C 197.164062 187.949219 197.390625 188.179688 197.675781 188.179688 C 197.957031 188.179688 198.183594 187.949219 198.183594 187.667969 L 198.183594 183.589844 C 198.183594 183.308594 197.957031 183.078125 197.675781 183.078125 Z M 197.675781 183.078125 " fill-opacity="1" fill-rule="nonzero"/><g clip-path="url(#80f9e2d8ac)"><path fill="#ffffff" d="M 199.714844 184.097656 C 199.433594 184.097656 199.203125 184.328125 199.203125 184.609375 L 199.203125 186.648438 C 199.203125 186.929688 199.433594 187.160156 199.714844 187.160156 C 199.996094 187.160156 200.222656 186.929688 200.222656 186.648438 L 200.222656 184.609375 C 200.222656 184.328125 199.996094 184.097656 199.714844 184.097656 Z M 199.714844 184.097656 " fill-opacity="1" fill-rule="nonzero"/></g><g clip-path="url(#5ece2cc767)"><path fill="#ffffff" d="M 217.222656 184.980469 C 217.222656 179.824219 213.042969 175.640625 207.882812 175.640625 L 207.882812 194.320312 C 213.042969 194.320312 217.222656 190.140625 217.222656 184.980469 Z M 217.222656 184.980469 " fill-opacity="1" fill-rule="nonzero"/></g><g clip-path="url(#1e6b690ecf)"><path fill="#ffffff" d="M 227.214844 184.984375 C 227.214844 181.515625 224.40625 178.703125 220.933594 178.703125 L 220.933594 191.265625 C 224.40625 191.265625 227.214844 188.453125 227.214844 184.984375 Z M 227.214844 184.984375 " fill-opacity="1" fill-rule="nonzero"/></g><g clip-path="url(#0730c16cbe)"><path fill="#ffffff" d="M 147.78125 184.984375 C 147.78125 181.515625 150.59375 178.703125 154.0625 178.703125 L 154.0625 191.265625 C 150.59375 191.265625 147.78125 188.453125 147.78125 184.984375 Z M 147.78125 184.984375 " fill-opacity="1" fill-rule="nonzero"/></g><g clip-path="url(#d455644292)"><path fill="#ffffff" d="M 157.894531 184.980469 C 157.894531 190.140625 162.074219 194.320312 167.234375 194.320312 L 167.234375 175.640625 C 162.074219 175.640625 157.894531 179.824219 157.894531 184.980469 Z M 157.894531 184.980469 " fill-opacity="1" fill-rule="nonzero"/></g><g fill="#ffffff" fill-opacity="1"><g transform="translate(126.127898, 230.197821)"><g><path d="M 7.519531 0 C 12.226562 0 15.355469 -2.984375 15.355469 -7.472656 C 15.355469 -11.941406 12.203125 -14.925781 7.484375 -14.925781 L 2.03125 -14.925781 L 2.03125 0 Z M 3.941406 -13.191406 L 7.429688 -13.191406 C 11.140625 -13.191406 13.390625 -10.898438 13.390625 -7.429688 C 13.390625 -3.972656 11.128906 -1.757812 7.472656 -1.757812 L 3.941406 -1.757812 Z M 3.941406 -13.191406 "/></g></g></g><g fill="#ffffff" fill-opacity="1"><g transform="translate(149.846396, 230.197821)"><g><path d="M 3.972656 0 L 3.972656 -6.605469 L 12.601562 -6.605469 L 12.601562 0 L 14.554688 0 L 14.554688 -14.925781 L 12.601562 -14.925781 L 12.601562 -8.351562 L 3.972656 -8.351562 L 3.972656 -14.925781 L 2.03125 -14.925781 L 2.03125 0 Z M 3.972656 0 "/></g></g></g><g fill="#ffffff" fill-opacity="1"><g transform="translate(173.89414, 230.197821)"><g><path d="M 8.375 0 L 14.71875 -14.925781 L 12.65625 -14.925781 L 7.496094 -2.546875 L 7.464844 -2.511719 L 2.28125 -14.925781 L 0.21875 -14.925781 L 6.574219 0 Z M 8.375 0 "/></g></g></g><g fill="#ffffff" fill-opacity="1"><g transform="translate(196.306625, 230.197821)"><g><path d="M 14.640625 0 L 8.332031 -14.925781 L 6.464844 -14.925781 L 0.144531 0 L 2.207031 0 L 3.621094 -3.378906 L 11.160156 -3.378906 L 12.578125 0 Z M 7.320312 -12.195312 L 7.386719 -12.445312 L 7.410156 -12.445312 L 7.464844 -12.195312 L 10.46875 -5.027344 L 4.3125 -5.027344 Z M 7.320312 -12.195312 "/></g></g></g><g fill="#ffffff" fill-opacity="1"><g transform="translate(218.554487, 230.197821)"><g><path d="M 12.875 -3.226562 L 12.863281 -3.226562 L 3.664062 -14.925781 L 2.03125 -14.925781 L 2.03125 0 L 3.972656 0 L 3.972656 -11.667969 L 13.160156 0 L 14.804688 0 L 14.804688 -14.925781 L 12.875 -14.925781 Z M 12.875 -3.226562 "/></g></g></g><g fill="#ffffff" fill-opacity="1"><g transform="translate(242.854653, 230.197821)"><g><path d="M 3.972656 0 L 3.972656 -14.925781 L 2.03125 -14.925781 L 2.03125 0 Z M 3.972656 0 "/></g></g></g><g fill="#ffffff" fill-opacity="1"><g transform="translate(116.871631, 244.328264)"><g><path d="M 0.195312 -4.347656 C 0.195312 -4.253906 0.25 -4.199219 0.339844 -4.199219 L 1.589844 -4.199219 L 1.589844 -0.140625 C 1.589844 -0.0507812 1.640625 0.00390625 1.734375 0.00390625 L 2.371094 0.00390625 C 2.464844 0.00390625 2.519531 -0.0507812 2.519531 -0.140625 L 2.519531 -4.199219 L 3.777344 -4.199219 C 3.867188 -4.199219 3.917969 -4.257812 3.917969 -4.347656 L 3.917969 -4.871094 C 3.917969 -4.960938 3.867188 -5.015625 3.777344 -5.015625 L 0.339844 -5.015625 C 0.246094 -5.015625 0.195312 -4.964844 0.195312 -4.871094 Z M 0.195312 -4.347656 "/></g></g></g><g fill="#ffffff" fill-opacity="1"><g transform="translate(123.014893, 244.328264)"><g><path d="M 1.441406 -4.90625 C 1.441406 -4.980469 1.398438 -5.023438 1.332031 -5.023438 L 0.617188 -5.023438 C 0.550781 -5.023438 0.507812 -4.980469 0.507812 -4.90625 L 0.507812 -2.0625 C 0.507812 -0.800781 1.367188 0.078125 2.621094 0.078125 C 3.867188 0.078125 4.734375 -0.792969 4.734375 -2.050781 L 4.734375 -4.90625 C 4.734375 -4.984375 4.6875 -5.023438 4.613281 -5.023438 L 3.921875 -5.023438 C 3.851562 -5.023438 3.804688 -4.980469 3.804688 -4.90625 L 3.804688 -2.054688 C 3.804688 -1.351562 3.304688 -0.832031 2.621094 -0.832031 C 1.933594 -0.832031 1.441406 -1.351562 1.441406 -2.054688 Z M 1.441406 -4.90625 "/></g></g></g><g fill="#ffffff" fill-opacity="1"><g transform="translate(130.290781, 244.328264)"><g><path d="M 4.953125 -5.023438 L 4.242188 -5.023438 C 4.175781 -5.023438 4.132812 -4.984375 4.132812 -4.914062 L 4.132812 -1.917969 L 0.917969 -4.964844 C 0.847656 -5.027344 0.800781 -5.082031 0.734375 -5.082031 L 0.71875 -5.082031 C 0.652344 -5.082031 0.597656 -5.019531 0.597656 -4.9375 L 0.597656 -0.105469 C 0.597656 -0.0351562 0.640625 0.00390625 0.710938 0.00390625 L 1.421875 0.00390625 C 1.488281 0.00390625 1.53125 -0.0351562 1.53125 -0.105469 L 1.53125 -3.085938 L 4.726562 -0.0546875 C 4.796875 0.0117188 4.847656 0.0664062 4.929688 0.0664062 L 4.9375 0.0664062 C 5.007812 0.0664062 5.066406 0.0117188 5.066406 -0.0898438 L 5.066406 -4.914062 C 5.066406 -4.980469 5.027344 -5.023438 4.953125 -5.023438 Z M 4.953125 -5.023438 "/></g></g></g><g fill="#ffffff" fill-opacity="1"><g transform="translate(137.982738, 244.328264)"><g><path d="M 4.230469 -0.886719 L 1.53125 -0.886719 L 1.53125 -1.890625 L 3.628906 -1.890625 C 3.738281 -1.890625 3.804688 -1.953125 3.804688 -2.039062 L 3.804688 -2.59375 C 3.804688 -2.691406 3.738281 -2.746094 3.628906 -2.746094 L 1.53125 -2.746094 L 1.53125 -4.132812 L 4.210938 -4.132812 C 4.304688 -4.132812 4.363281 -4.1875 4.363281 -4.28125 L 4.363281 -4.871094 C 4.363281 -4.960938 4.304688 -5.015625 4.210938 -5.015625 L 0.746094 -5.015625 C 0.652344 -5.015625 0.597656 -4.964844 0.597656 -4.867188 L 0.597656 -0.144531 C 0.597656 -0.0546875 0.652344 0 0.746094 0 L 4.28125 0 C 4.371094 0 4.429688 -0.0546875 4.429688 -0.144531 L 4.429688 -0.699219 C 4.429688 -0.8125 4.351562 -0.886719 4.230469 -0.886719 Z M 4.230469 -0.886719 "/></g></g></g><g fill="#ffffff" fill-opacity="1"><g transform="translate(144.779818, 244.328264)"><g><path d="M 2.265625 0.078125 C 3.320312 0.078125 4.066406 -0.511719 4.066406 -1.445312 C 4.066406 -2.335938 3.320312 -2.640625 2.515625 -2.902344 C 1.929688 -3.101562 1.457031 -3.292969 1.457031 -3.667969 C 1.457031 -3.980469 1.734375 -4.203125 2.210938 -4.203125 C 2.503906 -4.203125 2.832031 -4.082031 3.058594 -3.871094 C 3.164062 -3.800781 3.253906 -3.773438 3.34375 -3.882812 L 3.691406 -4.28125 C 3.753906 -4.355469 3.75 -4.449219 3.683594 -4.523438 C 3.390625 -4.863281 2.824219 -5.09375 2.253906 -5.09375 C 1.207031 -5.09375 0.542969 -4.527344 0.542969 -3.679688 C 0.542969 -2.867188 1.097656 -2.503906 2.042969 -2.191406 C 2.722656 -1.960938 3.101562 -1.789062 3.101562 -1.433594 C 3.101562 -1.046875 2.792969 -0.8125 2.230469 -0.8125 C 1.808594 -0.8125 1.339844 -1.058594 1.046875 -1.375 C 0.96875 -1.445312 0.886719 -1.460938 0.824219 -1.402344 L 0.394531 -0.972656 C 0.324219 -0.90625 0.316406 -0.820312 0.367188 -0.757812 C 0.730469 -0.265625 1.503906 0.078125 2.265625 0.078125 Z M 2.265625 0.078125 "/></g></g></g><g fill="#ffffff" fill-opacity="1"><g transform="translate(151.19055, 244.328264)"><g/></g></g><g fill="#ffffff" fill-opacity="1"><g transform="translate(155.345935, 244.328264)"><g><path d="M 4.027344 -5.015625 L 0.746094 -5.015625 C 0.652344 -5.015625 0.597656 -4.964844 0.597656 -4.871094 L 0.597656 -0.144531 C 0.597656 -0.0546875 0.652344 0 0.746094 0 L 1.390625 0 C 1.480469 0 1.53125 -0.0546875 1.53125 -0.144531 L 1.53125 -1.613281 L 3.53125 -1.613281 C 3.640625 -1.613281 3.703125 -1.671875 3.703125 -1.761719 L 3.703125 -2.3125 C 3.703125 -2.410156 3.640625 -2.46875 3.53125 -2.46875 L 1.53125 -2.46875 L 1.53125 -4.132812 L 4.027344 -4.132812 C 4.125 -4.132812 4.179688 -4.183594 4.179688 -4.28125 L 4.179688 -4.871094 C 4.179688 -4.964844 4.125 -5.015625 4.027344 -5.015625 Z M 4.027344 -5.015625 "/></g></g></g><g fill="#ffffff" fill-opacity="1"><g transform="translate(161.816106, 244.328264)"><g><path d="M 0.296875 -2.5 C 0.296875 -1.042969 1.441406 0.078125 2.898438 0.078125 C 4.355469 0.078125 5.5 -1.042969 5.5 -2.5 C 5.5 -3.957031 4.355469 -5.09375 2.898438 -5.09375 C 1.441406 -5.09375 0.296875 -3.957031 0.296875 -2.5 Z M 1.226562 -2.5 C 1.226562 -3.4375 1.964844 -4.164062 2.898438 -4.164062 C 3.832031 -4.164062 4.570312 -3.4375 4.570312 -2.5 C 4.570312 -1.570312 3.835938 -0.851562 2.898438 -0.851562 C 1.960938 -0.851562 1.226562 -1.570312 1.226562 -2.5 Z M 1.226562 -2.5 "/></g></g></g><g fill="#ffffff" fill-opacity="1"><g transform="translate(169.643447, 244.328264)"><g><path d="M 3.746094 -1.484375 C 4.273438 -1.820312 4.597656 -2.386719 4.597656 -3.070312 C 4.597656 -4.199219 3.746094 -5.015625 2.570312 -5.015625 L 1.398438 -5.015625 C 1.316406 -5.015625 1.101562 -5.015625 0.910156 -5.015625 L 0.746094 -5.015625 C 0.660156 -5.015625 0.597656 -4.957031 0.597656 -4.875 L 0.597656 -0.140625 C 0.597656 -0.0546875 0.660156 0.00390625 0.746094 0.00390625 L 1.378906 0.00390625 C 1.46875 0.00390625 1.53125 -0.0546875 1.53125 -0.140625 L 1.53125 -1.160156 L 2.570312 -1.160156 C 2.6875 -1.160156 2.800781 -1.164062 2.914062 -1.183594 L 3.429688 -0.117188 C 3.46875 -0.0507812 3.535156 0.00390625 3.597656 0.00390625 L 4.324219 0.00390625 C 4.429688 0.00390625 4.472656 -0.0742188 4.421875 -0.167969 Z M 2.507812 -1.9375 L 1.53125 -1.9375 L 1.53125 -4.199219 L 2.507812 -4.199219 C 3.171875 -4.199219 3.664062 -3.726562 3.664062 -3.078125 C 3.664062 -2.40625 3.183594 -1.9375 2.507812 -1.9375 Z M 2.507812 -1.9375 "/></g></g></g><g fill="#ffffff" fill-opacity="1"><g transform="translate(176.681581, 244.328264)"><g/></g></g><g fill="#ffffff" fill-opacity="1"><g transform="translate(180.836967, 244.328264)"><g><path d="M 0.195312 -4.347656 C 0.195312 -4.253906 0.25 -4.199219 0.339844 -4.199219 L 1.589844 -4.199219 L 1.589844 -0.140625 C 1.589844 -0.0507812 1.640625 0.00390625 1.734375 0.00390625 L 2.371094 0.00390625 C 2.464844 0.00390625 2.519531 -0.0507812 2.519531 -0.140625 L 2.519531 -4.199219 L 3.777344 -4.199219 C 3.867188 -4.199219 3.917969 -4.257812 3.917969 -4.347656 L 3.917969 -4.871094 C 3.917969 -4.960938 3.867188 -5.015625 3.777344 -5.015625 L 0.339844 -5.015625 C 0.246094 -5.015625 0.195312 -4.964844 0.195312 -4.871094 Z M 0.195312 -4.347656 "/></g></g></g><g fill="#ffffff" fill-opacity="1"><g transform="translate(186.980227, 244.328264)"><g><path d="M 4.847656 -5.023438 L 4.132812 -5.023438 C 4.066406 -5.023438 4.027344 -4.980469 4.027344 -4.910156 L 4.027344 -2.414062 L 1.53125 -2.414062 L 1.53125 -4.910156 C 1.53125 -4.980469 1.488281 -5.023438 1.421875 -5.023438 L 0.710938 -5.023438 C 0.640625 -5.023438 0.597656 -4.984375 0.597656 -4.910156 L 0.597656 -0.105469 C 0.597656 -0.0351562 0.640625 0.00390625 0.710938 0.00390625 L 1.421875 0.00390625 C 1.488281 0.00390625 1.53125 -0.0351562 1.53125 -0.105469 L 1.53125 -1.59375 L 4.027344 -1.59375 L 4.027344 -0.105469 C 4.027344 -0.0351562 4.066406 0.00390625 4.132812 0.00390625 L 4.847656 0.00390625 C 4.917969 0.00390625 4.960938 -0.0351562 4.960938 -0.105469 L 4.960938 -4.910156 C 4.960938 -4.984375 4.917969 -5.023438 4.847656 -5.023438 Z M 4.847656 -5.023438 "/></g></g></g><g fill="#ffffff" fill-opacity="1"><g transform="translate(194.566518, 244.328264)"><g><path d="M 4.230469 -0.886719 L 1.53125 -0.886719 L 1.53125 -1.890625 L 3.628906 -1.890625 C 3.738281 -1.890625 3.804688 -1.953125 3.804688 -2.039062 L 3.804688 -2.59375 C 3.804688 -2.691406 3.738281 -2.746094 3.628906 -2.746094 L 1.53125 -2.746094 L 1.53125 -4.132812 L 4.210938 -4.132812 C 4.304688 -4.132812 4.363281 -4.1875 4.363281 -4.28125 L 4.363281 -4.871094 C 4.363281 -4.960938 4.304688 -5.015625 4.210938 -5.015625 L 0.746094 -5.015625 C 0.652344 -5.015625 0.597656 -4.964844 0.597656 -4.867188 L 0.597656 -0.144531 C 0.597656 -0.0546875 0.652344 0 0.746094 0 L 4.28125 0 C 4.371094 0 4.429688 -0.0546875 4.429688 -0.144531 L 4.429688 -0.699219 C 4.429688 -0.8125 4.351562 -0.886719 4.230469 -0.886719 Z M 4.230469 -0.886719 "/></g></g></g><g fill="#ffffff" fill-opacity="1"><g transform="translate(201.363602, 244.328264)"><g/></g></g><g fill="#ffffff" fill-opacity="1"><g transform="translate(205.518992, 244.328264)"><g><path d="M 4.027344 -5.015625 L 0.746094 -5.015625 C 0.652344 -5.015625 0.597656 -4.964844 0.597656 -4.871094 L 0.597656 -0.144531 C 0.597656 -0.0546875 0.652344 0 0.746094 0 L 1.390625 0 C 1.480469 0 1.53125 -0.0546875 1.53125 -0.144531 L 1.53125 -1.613281 L 3.53125 -1.613281 C 3.640625 -1.613281 3.703125 -1.671875 3.703125 -1.761719 L 3.703125 -2.3125 C 3.703125 -2.410156 3.640625 -2.46875 3.53125 -2.46875 L 1.53125 -2.46875 L 1.53125 -4.132812 L 4.027344 -4.132812 C 4.125 -4.132812 4.179688 -4.183594 4.179688 -4.28125 L 4.179688 -4.871094 C 4.179688 -4.964844 4.125 -5.015625 4.027344 -5.015625 Z M 4.027344 -5.015625 "/></g></g></g><g fill="#ffffff" fill-opacity="1"><g transform="translate(211.989167, 244.328264)"><g><path d="M 0.296875 -2.5 C 0.296875 -1.042969 1.441406 0.078125 2.898438 0.078125 C 4.355469 0.078125 5.5 -1.042969 5.5 -2.5 C 5.5 -3.957031 4.355469 -5.09375 2.898438 -5.09375 C 1.441406 -5.09375 0.296875 -3.957031 0.296875 -2.5 Z M 1.226562 -2.5 C 1.226562 -3.4375 1.964844 -4.164062 2.898438 -4.164062 C 3.832031 -4.164062 4.570312 -3.4375 4.570312 -2.5 C 4.570312 -1.570312 3.835938 -0.851562 2.898438 -0.851562 C 1.960938 -0.851562 1.226562 -1.570312 1.226562 -2.5 Z M 1.226562 -2.5 "/></g></g></g><g fill="#ffffff" fill-opacity="1"><g transform="translate(219.816512, 244.328264)"><g><path d="M 3.746094 -1.484375 C 4.273438 -1.820312 4.597656 -2.386719 4.597656 -3.070312 C 4.597656 -4.199219 3.746094 -5.015625 2.570312 -5.015625 L 1.398438 -5.015625 C 1.316406 -5.015625 1.101562 -5.015625 0.910156 -5.015625 L 0.746094 -5.015625 C 0.660156 -5.015625 0.597656 -4.957031 0.597656 -4.875 L 0.597656 -0.140625 C 0.597656 -0.0546875 0.660156 0.00390625 0.746094 0.00390625 L 1.378906 0.00390625 C 1.46875 0.00390625 1.53125 -0.0546875 1.53125 -0.140625 L 1.53125 -1.160156 L 2.570312 -1.160156 C 2.6875 -1.160156 2.800781 -1.164062 2.914062 -1.183594 L 3.429688 -0.117188 C 3.46875 -0.0507812 3.535156 0.00390625 3.597656 0.00390625 L 4.324219 0.00390625 C 4.429688 0.00390625 4.472656 -0.0742188 4.421875 -0.167969 Z M 2.507812 -1.9375 L 1.53125 -1.9375 L 1.53125 -4.199219 L 2.507812 -4.199219 C 3.171875 -4.199219 3.664062 -3.726562 3.664062 -3.078125 C 3.664062 -2.40625 3.183594 -1.9375 2.507812 -1.9375 Z M 2.507812 -1.9375 "/></g></g></g><g fill="#ffffff" fill-opacity="1"><g transform="translate(226.854651, 244.328264)"><g><path d="M 4.230469 -0.886719 L 1.53125 -0.886719 L 1.53125 -1.890625 L 3.628906 -1.890625 C 3.738281 -1.890625 3.804688 -1.953125 3.804688 -2.039062 L 3.804688 -2.59375 C 3.804688 -2.691406 3.738281 -2.746094 3.628906 -2.746094 L 1.53125 -2.746094 L 1.53125 -4.132812 L 4.210938 -4.132812 C 4.304688 -4.132812 4.363281 -4.1875 4.363281 -4.28125 L 4.363281 -4.871094 C 4.363281 -4.960938 4.304688 -5.015625 4.210938 -5.015625 L 0.746094 -5.015625 C 0.652344 -5.015625 0.597656 -4.964844 0.597656 -4.867188 L 0.597656 -0.144531 C 0.597656 -0.0546875 0.652344 0 0.746094 0 L 4.28125 0 C 4.371094 0 4.429688 -0.0546875 4.429688 -0.144531 L 4.429688 -0.699219 C 4.429688 -0.8125 4.351562 -0.886719 4.230469 -0.886719 Z M 4.230469 -0.886719 "/></g></g></g><g fill="#ffffff" fill-opacity="1"><g transform="translate(233.651736, 244.328264)"><g><path d="M 3.914062 -1.207031 C 3.636719 -0.980469 3.25 -0.851562 2.925781 -0.851562 C 1.984375 -0.851562 1.226562 -1.574219 1.226562 -2.503906 C 1.226562 -3.429688 1.980469 -4.164062 2.925781 -4.164062 C 3.265625 -4.164062 3.644531 -4.039062 3.921875 -3.800781 C 4.007812 -3.730469 4.101562 -3.75 4.136719 -3.808594 L 4.515625 -4.375 C 4.550781 -4.429688 4.546875 -4.503906 4.464844 -4.566406 C 4.050781 -4.898438 3.425781 -5.09375 2.925781 -5.09375 C 1.460938 -5.09375 0.296875 -3.957031 0.296875 -2.503906 C 0.296875 -1.050781 1.460938 0.078125 2.925781 0.078125 C 3.441406 0.078125 4.046875 -0.125 4.445312 -0.4375 C 4.515625 -0.488281 4.546875 -0.574219 4.515625 -0.625 L 4.136719 -1.199219 C 4.09375 -1.261719 3.996094 -1.265625 3.914062 -1.207031 Z M 3.914062 -1.207031 "/></g></g></g><g fill="#ffffff" fill-opacity="1"><g transform="translate(240.544582, 244.328264)"><g><path d="M 4.855469 -0.160156 L 2.714844 -4.949219 C 2.679688 -5.027344 2.613281 -5.082031 2.53125 -5.082031 L 2.488281 -5.082031 C 2.417969 -5.082031 2.34375 -5.03125 2.308594 -4.953125 L 0.171875 -0.164062 C 0.125 -0.0625 0.175781 0.00390625 0.285156 0.00390625 L 0.992188 0.00390625 C 1.074219 0.00390625 1.132812 -0.0546875 1.164062 -0.125 L 1.363281 -0.609375 L 3.667969 -0.609375 L 3.871094 -0.121094 C 3.898438 -0.0507812 3.960938 0.0078125 4.039062 0.0078125 L 4.75 0.0078125 C 4.855469 0.0078125 4.898438 -0.0664062 4.855469 -0.160156 Z M 1.691406 -1.410156 L 2.515625 -3.40625 L 3.339844 -1.410156 Z M 1.691406 -1.410156 "/></g></g></g><g fill="#ffffff" fill-opacity="1"><g transform="translate(247.602533, 244.328264)"><g><path d="M 2.265625 0.078125 C 3.320312 0.078125 4.066406 -0.511719 4.066406 -1.445312 C 4.066406 -2.335938 3.320312 -2.640625 2.515625 -2.902344 C 1.929688 -3.101562 1.457031 -3.292969 1.457031 -3.667969 C 1.457031 -3.980469 1.734375 -4.203125 2.210938 -4.203125 C 2.503906 -4.203125 2.832031 -4.082031 3.058594 -3.871094 C 3.164062 -3.800781 3.253906 -3.773438 3.34375 -3.882812 L 3.691406 -4.28125 C 3.753906 -4.355469 3.75 -4.449219 3.683594 -4.523438 C 3.390625 -4.863281 2.824219 -5.09375 2.253906 -5.09375 C 1.207031 -5.09375 0.542969 -4.527344 0.542969 -3.679688 C 0.542969 -2.867188 1.097656 -2.503906 2.042969 -2.191406 C 2.722656 -1.960938 3.101562 -1.789062 3.101562 -1.433594 C 3.101562 -1.046875 2.792969 -0.8125 2.230469 -0.8125 C 1.808594 -0.8125 1.339844 -1.058594 1.046875 -1.375 C 0.96875 -1.445312 0.886719 -1.460938 0.824219 -1.402344 L 0.394531 -0.972656 C 0.324219 -0.90625 0.316406 -0.820312 0.367188 -0.757812 C 0.730469 -0.265625 1.503906 0.078125 2.265625 0.078125 Z M 2.265625 0.078125 "/></g></g></g><g fill="#ffffff" fill-opacity="1"><g transform="translate(254.01327, 244.328264)"><g><path d="M 0.195312 -4.347656 C 0.195312 -4.253906 0.25 -4.199219 0.339844 -4.199219 L 1.589844 -4.199219 L 1.589844 -0.140625 C 1.589844 -0.0507812 1.640625 0.00390625 1.734375 0.00390625 L 2.371094 0.00390625 C 2.464844 0.00390625 2.519531 -0.0507812 2.519531 -0.140625 L 2.519531 -4.199219 L 3.777344 -4.199219 C 3.867188 -4.199219 3.917969 -4.257812 3.917969 -4.347656 L 3.917969 -4.871094 C 3.917969 -4.960938 3.867188 -5.015625 3.777344 -5.015625 L 0.339844 -5.015625 C 0.246094 -5.015625 0.195312 -4.964844 0.195312 -4.871094 Z M 0.195312 -4.347656 "/></g></g></g></svg>